<svg width="724" height="201" viewBox="0 0 724 201" fill="none" xmlns="http://www.w3.org/2000/svg">
<rect width="724" height="201" fill="white"/>
<path d="M148.453 115.066V58.4042C148.453 56.7678 149.775 55.4303 151.427 55.4303H160.301C161.938 55.4303 163.275 56.752 163.275 58.4042V77.2234H192.055C193.691 77.2234 195.029 78.5451 195.029 80.1973V87.7029C195.029 89.3394 193.707 90.6769 192.055 90.6769H163.275V115.082C162.709 130.786 183.699 129.952 184.109 116.199C184.156 114.657 185.493 113.461 187.035 113.461H195.941C197.515 113.461 198.9 114.689 198.915 116.262C199.482 148.346 146.691 149.07 148.437 115.082L148.453 115.066Z" fill="#6E35E9"/>
<path d="M205.776 110.96C204.691 92.2507 219.828 75.7604 238.568 75.603C257.309 75.4457 271.675 88.5373 271.675 108.474V135.082C271.675 137.096 270.038 138.732 268.024 138.732H261.762C259.748 138.732 258.111 137.096 258.111 135.082V126.648C254.382 135.742 246.027 140.337 236.318 140.337C221.952 140.337 206.893 130.44 205.761 110.96H205.776ZM256.884 107.844C256.821 97.0814 249.63 89.4184 238.836 89.4184C228.86 89.4184 221.071 97.0185 220.677 106.979C220.205 118.497 227.9 126.758 239.323 126.506C249.142 126.301 256.931 117.663 256.884 107.828V107.844Z" fill="#6E35E9"/>
<path d="M283.885 108.458C283.885 88.4271 297.48 75.4457 316.96 75.5873C335.701 75.7289 350.853 92.1878 349.799 110.897C348.698 130.408 333.624 140.321 319.242 140.321C310.399 140.321 303.05 136.592 298.692 129.732V161.611C298.692 163.452 297.197 164.963 295.34 164.963H287.221C285.38 164.963 283.869 163.468 283.869 161.611V108.442L283.885 108.458ZM334.898 108.961C335.37 97.4433 327.691 89.1824 316.252 89.4184C306.433 89.623 298.629 98.2773 298.692 108.096C298.755 118.859 305.961 126.506 316.74 126.506C326.716 126.506 334.489 118.922 334.898 108.961Z" fill="#6E35E9"/>
<path d="M372.127 107.969C372.127 89.2916 385.817 75.6021 405.25 75.6021C420.466 75.6021 431.952 83.9889 436.122 96.5297C436.736 98.355 435.414 100.259 433.494 100.259H423.927C422.857 100.259 421.945 99.6138 421.441 98.6539C418.562 93.0837 412.881 89.5591 405.659 89.4175C395.84 89.2444 387.359 97.4266 387.076 107.245C386.745 118.464 394.172 126.521 405.234 126.521C412.645 126.521 418.499 122.965 421.441 117.284C421.929 116.34 422.857 115.679 423.927 115.679H433.494C435.414 115.679 436.736 117.583 436.122 119.409C431.952 131.934 420.466 140.336 405.25 140.336C385.833 140.336 372.127 126.647 372.127 107.969Z" fill="#6E35E9"/>
<path d="M444.383 110.959C443.297 92.2498 458.434 75.7595 477.175 75.6021C495.915 75.4448 510.281 88.5363 510.281 108.473V135.458C510.281 137.252 508.818 138.716 507.024 138.716H499.975C498.181 138.716 496.718 137.252 496.718 135.458V126.631C492.988 135.726 484.633 140.32 474.925 140.32C460.558 140.32 445.5 130.423 444.367 110.943L444.383 110.959ZM495.475 107.843C495.412 97.0805 488.221 89.4175 477.426 89.4175C467.45 89.4175 459.662 97.0176 459.268 106.978C458.796 118.496 466.475 126.757 477.914 126.505C487.733 126.301 495.537 117.662 495.475 107.843Z" fill="#6E35E9"/>
<path d="M522.476 102.981C520.462 67.0737 575.692 66.3341 576.463 100.369C576.51 102.163 574.952 103.595 573.159 103.595H564.961C563.261 103.595 561.845 102.289 561.703 100.605C560.445 84.8228 536.323 85.1375 537.267 102.981V135.411C537.267 137.236 535.788 138.715 533.963 138.715H525.749C523.924 138.715 522.444 137.236 522.444 135.411V102.981H522.476Z" fill="#6E35E9"/>
<path d="M581.907 105.027C583.009 85.5152 598.083 75.6021 612.465 75.6021C621.308 75.6021 628.656 79.3313 633.015 86.1918V54.045C633.015 51.9995 634.683 50.3315 636.728 50.3315H644.108C646.153 50.3315 647.821 51.9995 647.821 54.045V107.466C647.821 127.496 634.226 140.478 614.746 140.336C596.006 140.195 580.853 123.736 581.907 105.027ZM633.015 107.843C632.952 97.0805 625.761 89.4175 614.967 89.4175C604.99 89.4175 597.202 97.0175 596.808 106.978C596.336 118.496 604.031 126.757 615.454 126.505C625.273 126.301 633.062 117.662 633.015 107.828V107.843Z" fill="#6E35E9"/>
<path d="M127.194 136.655C125.369 136.655 123.544 135.963 122.159 134.562C101.955 114.358 101.955 81.4878 122.159 61.284C124.944 58.4989 129.46 58.4989 132.245 61.284C135.031 64.0691 135.031 68.585 132.245 71.3701C117.596 86.0195 117.596 109.842 132.245 124.492C135.031 127.277 135.031 131.793 132.245 134.578C130.861 135.978 129.035 136.671 127.21 136.671L127.194 136.655Z" fill="#34C0FE"/>
<path d="M105.984 157.866C104.159 157.866 102.333 157.174 100.949 155.773C85.4969 140.337 77 119.787 77 97.931C77 76.075 85.4969 55.525 100.949 40.0889C103.734 37.3038 108.25 37.3038 111.035 40.0889C113.82 42.874 113.82 47.39 111.035 50.1751C98.2896 62.9205 91.2717 79.8829 91.2717 97.931C91.2717 115.979 98.2896 132.942 111.035 145.687C113.82 148.472 113.82 152.988 111.035 155.773C109.65 157.174 107.825 157.866 106 157.866H105.984Z" fill="#34C0FE"/>
</svg>
